# xmcd CD database file
#
# Track frame offsets:
#	150
#	17550
#	38915
#	49445
#
# Disc length: 977 seconds
#
# Revision: 1
# Processed by: cddbd v1.5PL3 Copyright (c) Steve Scherf et al.
# Submitted via: CDex 1.50
#
DISCID=2d03cf04
DTITLE=The Thrills - santa cruz (you're not that far)
DYEAR=2002
DGENRE=Pop
TTITLE0=santa cruz (you're not that far)
TTITLE1=deckchairs and cigarettes
TTITLE2=your love is like las vegas
TTITLE3=plans
EXTD=YEAR: 2002
EXTT0=
EXTT1=
EXTT2=
EXTT3=
PLAYORDER=
